<svg width="46" height="46" viewBox="0 0 46 46" fill="none" xmlns="http://www.w3.org/2000/svg">
<path d="M10 1H36C40.9706 1 45 5.02944 45 10V36C45 40.9706 40.9706 45 36 45H10C5.02944 45 1 40.9706 1 36V10C1 5.02944 5.02944 1 10 1Z" stroke="white" stroke-width="2"/>
<path d="M20.2419 29.5667C20.1646 29.6478 20.1042 29.7432 20.0641 29.8474C20.024 29.9517 20.005 30.0628 20.0082 30.1743C20.0114 30.2859 20.0367 30.3957 20.0827 30.4975C20.1286 30.5994 20.1944 30.6912 20.2761 30.7679C20.3579 30.8445 20.454 30.9044 20.5591 30.9442C20.6642 30.984 20.7762 31.0028 20.8886 30.9997C21.0011 30.9965 21.1118 30.9714 21.2145 30.9258C21.3171 30.8802 21.4097 30.815 21.487 30.7339L28.7659 23.0884C28.9162 22.9307 29 22.7218 29 22.5048C29 22.2877 28.9162 22.0789 28.7659 21.9212L21.487 14.2748C21.4102 14.1919 21.3177 14.125 21.2146 14.0779C21.1116 14.0308 21.0001 14.0045 20.8868 14.0005C20.7734 13.9965 20.6603 14.0149 20.5542 14.0546C20.448 14.0944 20.3509 14.1546 20.2684 14.2319C20.1859 14.3091 20.1197 14.4019 20.0737 14.5047C20.0277 14.6076 20.0027 14.7185 20.0002 14.831C19.9977 14.9435 20.0178 15.0554 20.0593 15.1601C20.1008 15.2649 20.1628 15.3604 20.2419 15.4412L20.4017 15.6091C24.078 19.4711 24.0777 25.5381 20.4009 29.3996L20.2419 29.5667Z" fill="white"/>
</svg>
