<svg width="46" height="46" viewBox="0 0 46 46" fill="none" xmlns="http://www.w3.org/2000/svg">
<rect x="1" y="1" width="44" height="44" rx="9" stroke="white" stroke-width="2"/>
<path d="M26.7581 15.4333C26.8354 15.3522 26.8958 15.2568 26.9359 15.1526C26.976 15.0483 26.995 14.9372 26.9918 14.8257C26.9886 14.7141 26.9633 14.6043 26.9173 14.5025C26.8714 14.4006 26.8056 14.3088 26.7239 14.2321C26.6421 14.1555 26.546 14.0956 26.4409 14.0558C26.3358 14.016 26.2238 13.9972 26.1114 14.0003C25.9989 14.0035 25.8882 14.0286 25.7855 14.0742C25.6829 14.1198 25.5903 14.185 25.513 14.2661L18.2341 21.9116C18.0838 22.0693 18 22.2782 18 22.4952C18 22.7123 18.0838 22.9211 18.2341 23.0788L25.513 30.7252C25.5898 30.8081 25.6823 30.875 25.7854 30.9221C25.8884 30.9692 25.9999 30.9955 26.1132 30.9995C26.2266 31.0035 26.3397 30.9851 26.4458 30.9454C26.552 30.9056 26.6491 30.8454 26.7316 30.7681C26.8141 30.6909 26.8803 30.5981 26.9263 30.4953C26.9723 30.3924 26.9973 30.2815 26.9998 30.169C27.0023 30.0565 26.9822 29.9446 26.9407 29.8399C26.8992 29.7351 26.8372 29.6396 26.7581 29.5588L26.5983 29.3909C22.922 25.5289 22.9223 19.4619 26.5991 15.6004L26.7581 15.4333Z" fill="white"/>
</svg>
