<svg width="36" height="36" viewBox="0 0 36 36" fill="none" xmlns="http://www.w3.org/2000/svg">
<path d="M35.2076 17.2028C35.2107 17.2028 35.2131 17.2028 35.2162 17.2028C35.4355 17.2028 35.6445 17.1108 35.7931 16.9497C35.944 16.7863 36.0186 16.567 35.999 16.3454C35.2099 7.66665 28.3388 0.79315 19.6593 0.00253265C19.4392 -0.0147572 19.2176 0.05676 19.0541 0.208439C18.8907 0.359332 18.7995 0.572312 18.8019 0.794722C18.9386 12.3286 20.4601 17.0417 35.2076 17.2028ZM35.2076 18.7966C20.4601 18.9577 18.9394 23.6708 18.8027 35.2047C18.8003 35.4271 18.8915 35.6401 19.0549 35.791C19.2011 35.9253 19.3921 36 19.5886 36C19.6121 36 19.6365 35.9992 19.6601 35.9969C28.3396 35.2062 35.2107 28.3335 35.999 19.654C36.0186 19.4324 35.9448 19.2131 35.7931 19.0497C35.6414 18.8862 35.43 18.8052 35.2076 18.7966ZM16.2901 0.00646226C7.63813 0.819871 0.788993 7.6918 0.00387652 16.3469C-0.015771 16.5686 0.0581039 16.7878 0.209783 16.9513C0.358319 17.1124 0.568154 17.2036 0.786635 17.2036C0.789779 17.2036 0.792923 17.2036 0.796066 17.2036C15.4948 17.0346 17.0124 12.3239 17.1507 0.797866C17.1531 0.575456 17.0611 0.36169 16.8976 0.210797C16.7326 0.0599036 16.5118 -0.0139712 16.2901 0.00646226ZM0.79528 18.7958C0.550865 18.7683 0.359104 18.8846 0.208997 19.0481C0.0581039 19.2116 -0.0165569 19.4308 0.00309067 19.6524C0.788207 28.3076 7.63813 35.1795 16.2901 35.9929C16.3145 35.9953 16.3396 35.9961 16.364 35.9961C16.5605 35.9961 16.7507 35.9222 16.8968 35.7878C17.0603 35.6369 17.1523 35.4231 17.1499 35.2007C17.0116 23.6755 15.4948 18.9648 0.79528 18.7958Z" fill="#5C9884"/>
</svg>
