<svg width="9" height="18" viewBox="0 0 9 18" fill="none" xmlns="http://www.w3.org/2000/svg">
<path d="M0.241859 16.4319C0.164601 16.513 0.104204 16.6084 0.0641136 16.7127C0.0240231 16.8169 0.00502586 16.928 0.00820637 17.0395C0.0113869 17.1511 0.036684 17.2609 0.0826511 17.3628C0.128618 17.4646 0.194357 17.5565 0.276114 17.6331C0.35787 17.7097 0.454043 17.7697 0.559141 17.8094C0.664239 17.8492 0.776204 17.868 0.888644 17.8649C1.00108 17.8617 1.1118 17.8366 1.21446 17.791C1.31712 17.7454 1.40973 17.6802 1.48699 17.5991L8.76592 9.95362C8.91624 9.79589 9 9.58707 9 9.37001C9 9.15295 8.91624 8.94413 8.76592 8.7864L1.48699 1.14004C1.41024 1.05716 1.31765 0.990234 1.21461 0.943151C1.11157 0.896069 1.00013 0.869764 0.886752 0.865768C0.773376 0.861773 0.66033 0.880165 0.55418 0.919876C0.44803 0.959587 0.350892 1.01982 0.268409 1.09709C0.185925 1.17436 0.11974 1.26711 0.0736971 1.36996C0.0276546 1.47282 0.00267315 1.58372 0.000203133 1.69624C-0.00226688 1.80875 0.0178232 1.92063 0.0593081 2.02538C0.100793 2.13012 0.162845 2.22565 0.241859 2.3064L0.40174 2.47436C4.07803 6.3363 4.07766 12.4034 0.400911 16.2649L0.241859 16.4319Z" fill="black"/>
</svg>
