<svg width="324" height="56" viewBox="0 0 324 56" fill="none" xmlns="http://www.w3.org/2000/svg">
<path d="M91.5137 39.3477V17.4629C91.5137 17.0059 91.6777 16.6133 92.0059 16.2852C92.334 15.957 92.7383 15.793 93.2188 15.793H96.4883C96.9453 15.793 97.332 15.957 97.6484 16.2852C97.9766 16.6133 98.1406 17.0059 98.1406 17.4629V25.373H110.234V17.4629C110.234 17.0059 110.398 16.6133 110.727 16.2852C111.055 15.957 111.447 15.793 111.904 15.793H115.174C115.654 15.793 116.053 15.957 116.369 16.2852C116.697 16.6133 116.861 17.0059 116.861 17.4629V39.3477C116.861 39.8047 116.691 40.1973 116.352 40.5254C116.023 40.8418 115.631 41 115.174 41H111.904C111.447 41 111.055 40.8477 110.727 40.543C110.398 40.2266 110.234 39.8398 110.234 39.3828V30.3477H98.1406V39.3828C98.1406 39.8398 97.9766 40.2266 97.6484 40.543C97.332 40.8477 96.9453 41 96.4883 41H93.2188C92.7617 41 92.3633 40.8418 92.0234 40.5254C91.6836 40.1973 91.5137 39.8047 91.5137 39.3477ZM145.18 38.3984C142.789 40.4961 139.273 41.5449 134.633 41.5449C130.004 41.5449 126.488 40.4961 124.086 38.3984C121.684 36.2891 120.482 32.9551 120.482 28.3965C120.482 23.8379 121.684 20.5098 124.086 18.4121C126.488 16.3145 130.004 15.2656 134.633 15.2656C139.273 15.2656 142.789 16.3145 145.18 18.4121C147.582 20.5098 148.783 23.8379 148.783 28.3965C148.783 32.9551 147.582 36.2891 145.18 38.3984ZM140.381 22.1211C139.197 20.7148 137.281 20.0117 134.633 20.0117C131.996 20.0117 130.08 20.7148 128.885 22.1211C127.701 23.5273 127.109 25.625 127.109 28.4141C127.109 31.1914 127.701 33.2832 128.885 34.6895C130.08 36.084 131.996 36.7812 134.633 36.7812C137.281 36.7812 139.197 36.084 140.381 34.6895C141.564 33.2832 142.156 31.1914 142.156 28.4141C142.156 25.625 141.564 23.5273 140.381 22.1211ZM152.404 17.4629C152.404 17.0059 152.568 16.6133 152.896 16.2852C153.225 15.957 153.617 15.793 154.074 15.793H168.365C171.869 15.793 174.453 16.8008 176.117 18.8164C177.043 19.9297 177.506 21.3535 177.506 23.0879C177.506 24.8105 176.715 26.3164 175.133 27.6055C177.383 28.8125 178.508 30.6875 178.508 33.2305C178.508 35.7734 177.605 37.707 175.801 39.0312C174.008 40.3438 171.805 41 169.191 41H154.074C153.617 41 153.225 40.8418 152.896 40.5254C152.568 40.1973 152.404 39.8047 152.404 39.3477V17.4629ZM159.031 36.2539H169.086C169.988 36.2539 170.68 35.9844 171.16 35.4453C171.641 34.9062 171.881 34.168 171.881 33.2305C171.881 32.293 171.641 31.5547 171.16 31.0156C170.68 30.4766 169.988 30.207 169.086 30.207H159.031V36.2539ZM159.031 25.584H168.436C169.174 25.584 169.766 25.3672 170.211 24.9336C170.656 24.4883 170.879 23.873 170.879 23.0879C170.879 22.291 170.656 21.6699 170.211 21.2246C169.766 20.7793 169.174 20.5566 168.436 20.5566H159.031V25.584ZM182.111 39.3477V17.4629C182.111 16.9824 182.27 16.584 182.586 16.2676C182.902 15.9512 183.301 15.793 183.781 15.793H186.875C187.332 15.793 187.719 15.9512 188.035 16.2676C188.363 16.584 188.527 16.9707 188.527 17.4277V35.0234L198.529 17.4629C198.799 17.0059 199.168 16.6133 199.637 16.2852C200.105 15.957 200.539 15.793 200.938 15.793H206.123C206.58 15.793 206.967 15.957 207.283 16.2852C207.6 16.6133 207.758 17.0059 207.758 17.4629V39.3477C207.758 39.8047 207.594 40.1973 207.266 40.5254C206.938 40.8418 206.545 41 206.088 41H202.994C202.537 41 202.145 40.8418 201.816 40.5254C201.5 40.1973 201.342 39.8047 201.342 39.3477V23.0352L192.166 39.3477C191.896 39.8047 191.516 40.1973 191.023 40.5254C190.531 40.8418 190.057 41 189.6 41H183.781C183.324 41 182.932 40.8418 182.604 40.5254C182.275 40.1973 182.111 39.8047 182.111 39.3477ZM212.803 39.3828V17.4629C212.803 16.9824 212.961 16.584 213.277 16.2676C213.594 15.9512 213.992 15.793 214.473 15.793H231.453C231.934 15.793 232.326 15.9512 232.631 16.2676C232.947 16.584 233.105 16.9824 233.105 17.4629V19.1152C233.105 19.5957 232.947 19.9941 232.631 20.3105C232.326 20.6152 231.934 20.7676 231.453 20.7676H219.43V39.3828C219.43 39.8398 219.266 40.2266 218.938 40.543C218.621 40.8477 218.234 41 217.777 41H214.473C214.016 41 213.623 40.8477 213.295 40.543C212.967 40.2266 212.803 39.8398 212.803 39.3828ZM236.006 39.3477V17.4629C236.006 17.0059 236.164 16.6133 236.48 16.2852C236.797 15.957 237.184 15.793 237.641 15.793H251.053C258.143 15.793 261.688 19.0625 261.688 25.6016C261.688 32.1289 258.143 35.3926 251.053 35.3926H242.633V39.3477C242.633 39.8047 242.469 40.1973 242.141 40.5254C241.824 40.8418 241.438 41 240.98 41H237.676C237.219 41 236.826 40.8418 236.498 40.5254C236.17 40.1973 236.006 39.8047 236.006 39.3477ZM242.633 30.418H249.049C251.018 30.418 252.512 30.0898 253.531 29.4336C254.551 28.7656 255.061 27.4883 255.061 25.6016C255.061 23.7031 254.551 22.4258 253.531 21.7695C252.512 21.1016 251.018 20.7676 249.049 20.7676H242.633V30.418ZM262.338 39.3828L266.75 22.6484C267.945 18.0898 271.836 15.8047 278.422 15.793H287.896C288.33 15.793 288.688 15.957 288.969 16.2852C289.262 16.6133 289.408 16.9941 289.408 17.4277V39.3828C289.408 39.8398 289.244 40.2266 288.916 40.543C288.588 40.8477 288.195 41 287.738 41H284.434C283.953 41 283.555 40.8477 283.238 40.543C282.934 40.2266 282.781 39.8281 282.781 39.3477V34.918H270.283L269.105 39.3477C268.988 39.8281 268.725 40.2266 268.314 40.543C267.904 40.8477 267.471 41 267.014 41H263.551C263.094 41 262.766 40.8711 262.566 40.6133C262.367 40.3438 262.268 40.1094 262.268 39.9102C262.279 39.7109 262.303 39.5352 262.338 39.3828ZM271.584 29.9434H282.781V20.7676H277.771C276.646 20.7676 275.662 21.0898 274.818 21.7344C273.986 22.3672 273.424 23.2227 273.131 24.3008L271.584 29.9434ZM291.922 39.3477V37.6602C291.922 37.2031 292.08 36.8164 292.396 36.5C292.725 36.1836 293.117 36.0254 293.574 36.0254H294.945L298.215 22.7188C299.352 18.1016 303.16 15.793 309.641 15.793H319.133C319.59 15.793 319.977 15.9512 320.293 16.2676C320.621 16.584 320.785 16.9707 320.785 17.4277V39.3828C320.785 39.8398 320.621 40.2266 320.293 40.543C319.977 40.8477 319.59 41 319.133 41H293.574C293.117 41 292.725 40.8418 292.396 40.5254C292.08 40.1973 291.922 39.8047 291.922 39.3477ZM301.713 36.0254H314.176V20.7676H308.92C307.807 20.7676 306.887 21.0723 306.16 21.6816C305.434 22.291 304.936 23.1406 304.666 24.2305L301.713 36.0254Z" fill="#5C9884"/>
<path d="M70 48.914V5.26714C70 4.76795 69.5523 4.36328 69 4.36328C68.4477 4.36328 68 4.76795 68 5.26714V48.914C68 49.4132 68.4477 49.8178 69 49.8178C69.5523 49.8178 70 49.4132 70 48.914Z" fill="#5C9884"/>
<g clip-path="url(#clip0_2126_626)">
<path d="M41.6126 3.9601L29.4757 0.134922C28.9741 -0.0231914 28.4338 0.283721 28.269 0.82043C28.1042 1.35714 28.3773 1.9204 28.879 2.07852L41.0158 5.9037C41.5175 6.06181 42.0578 5.7549 42.2226 5.21819C42.3873 4.68148 42.1143 4.11822 41.6126 3.9601Z" fill="#5C9884"/>
<path d="M42.5654 54.4325V5.04232C42.5654 4.47745 42.1177 4.01953 41.5654 4.01953C41.0131 4.01953 40.5654 4.47745 40.5654 5.04232V54.4325C40.5654 54.9973 41.0131 55.4552 41.5654 55.4552C42.1177 55.4552 42.5654 54.9973 42.5654 54.4325Z" fill="#5C9884"/>
<path d="M24.4453 49.4239L24.4453 7.59425C24.4453 7.05517 23.9976 6.61816 23.4453 6.61816C22.893 6.61816 22.4453 7.05517 22.4453 7.59425L22.4453 49.4239C22.4453 49.963 22.893 50.4 23.4453 50.4C23.9976 50.4 24.4453 49.963 24.4453 49.4239Z" fill="#5C9884"/>
<path d="M19.1211 49.4004L19.1211 8.63665C19.1211 8.08441 18.6734 7.63672 18.1211 7.63672C17.5688 7.63672 17.1211 8.08441 17.1211 8.63665L17.1211 49.4004C17.1211 49.9527 17.5688 50.4004 18.1211 50.4004C18.6734 50.4004 19.1211 49.9527 19.1211 49.4004Z" fill="#5C9884"/>
<path d="M48.0484 54.0781H0.95157C0.426032 54.0781 0 54.534 0 55.0963C0 55.6586 0.426032 56.1145 0.95157 56.1145H48.0484C48.574 56.1145 49 55.6586 49 55.0963C49 54.534 48.574 54.0781 48.0484 54.0781Z" fill="#5C9884"/>
<path d="M8.44727 54.2722L8.44727 5.26933C8.44727 4.71015 7.99955 4.25684 7.44727 4.25684C6.89498 4.25684 6.44727 4.71015 6.44727 5.26933L6.44727 54.2722C6.44727 54.8314 6.89498 55.2847 7.44727 55.2847C7.99955 55.2847 8.44727 54.8314 8.44727 54.2722Z" fill="#5C9884"/>
<path d="M13.7891 49.3789L13.7891 9.67512C13.7891 9.11133 13.3413 8.6543 12.7891 8.6543C12.2368 8.6543 11.7891 9.11133 11.7891 9.67512L11.7891 49.3789C11.7891 49.9427 12.2368 50.3997 12.7891 50.3997C13.3413 50.3997 13.7891 49.9427 13.7891 49.3789Z" fill="#5C9884"/>
<path d="M34.0342 49.4087V7.60945C34.0342 7.06198 33.5865 6.61816 33.0342 6.61816C32.4819 6.61816 32.0342 7.06198 32.0342 7.60945V49.4087C32.0342 49.9562 32.4819 50.4 33.0342 50.4C33.5865 50.4 34.0342 49.9562 34.0342 49.4087Z" fill="#5C9884"/>
<path d="M38.3262 49.3943V9.65975C38.3262 9.10445 37.8785 8.6543 37.3262 8.6543C36.7739 8.6543 36.3262 9.10445 36.3262 9.65975V49.3943C36.3262 49.9496 36.7739 50.3997 37.3262 50.3997C37.8785 50.3997 38.3262 49.9496 38.3262 49.3943Z" fill="#5C9884"/>
<path d="M29.792 54.8238L29.792 1.92611C29.792 1.36124 29.3443 0.90332 28.792 0.90332C28.2397 0.90332 27.792 1.36124 27.792 1.92611L27.792 54.8238C27.792 55.3886 28.2397 55.8466 28.792 55.8466C29.3443 55.8466 29.792 55.3886 29.792 54.8238Z" fill="#5C9884"/>
<path d="M28.4459 0.0185178L7.47877 4.16306C6.96302 4.26501 6.63176 4.79486 6.73888 5.3465C6.846 5.89815 7.35094 6.2627 7.86669 6.16075L28.8338 2.01621C29.3495 1.91426 29.6808 1.38442 29.5737 0.83277C29.4666 0.281123 28.9616 -0.0834305 28.4459 0.0185178Z" fill="#5C9884"/>
<path d="M30.4277 0.440509L29.1011 0.0501055C28.5965 -0.0983795 28.0628 0.219053 27.9089 0.75911C27.755 1.29917 28.0393 1.85734 28.5438 2.00582L29.8704 2.39623C30.3749 2.54471 30.9087 2.22728 31.0626 1.68723C31.2165 1.14717 30.9322 0.588995 30.4277 0.440509Z" fill="#5C9884"/>
</g>
<defs>
<clipPath id="clip0_2126_626">
<rect width="49" height="56" fill="white"/>
</clipPath>
</defs>
</svg>
