<svg width="11" height="17" viewBox="0 0 11 17" fill="none" xmlns="http://www.w3.org/2000/svg">
<g clip-path="url(#clip0_2126_554)">
<path d="M0.523109 15.5667C0.445851 15.6478 0.385454 15.7432 0.345364 15.8474C0.305273 15.9517 0.286276 16.0628 0.289456 16.1743C0.292637 16.2859 0.317934 16.3957 0.363901 16.4975C0.409869 16.5994 0.475607 16.6912 0.557364 16.7679C0.639119 16.8445 0.735292 16.9044 0.840391 16.9442C0.945489 16.984 1.05745 17.0028 1.16989 16.9997C1.28233 16.9965 1.39305 16.9714 1.49571 16.9258C1.59837 16.8802 1.69098 16.815 1.76824 16.7339L9.04717 9.08838C9.19749 8.93066 9.28125 8.72183 9.28125 8.50477C9.28125 8.28772 9.19749 8.07889 9.04717 7.92117L1.76824 0.274803C1.69149 0.191925 1.5989 0.125 1.49586 0.0779171C1.39282 0.0308342 1.28138 0.00452995 1.168 0.000534058C1.05463 -0.00346184 0.941581 0.0149307 0.83543 0.0546417C0.72928 0.0943508 0.632143 0.154589 0.549659 0.231855C0.467175 0.30912 0.40099 0.401875 0.354947 0.50473C0.308905 0.607586 0.283923 0.718491 0.281453 0.831005C0.278983 0.943518 0.299073 1.0554 0.340558 1.16014C0.382043 1.26489 0.444095 1.36041 0.523109 1.44117L0.68299 1.60912C4.35928 5.47107 4.35891 11.5381 0.682161 15.3996L0.523109 15.5667Z" fill="white"/>
</g>
<defs>
<clipPath id="clip0_2126_554">
<rect width="11" height="17" fill="white" transform="matrix(-1 0 0 -1 11 17)"/>
</clipPath>
</defs>
</svg>
