<svg width="17" height="9" viewBox="0 0 17 9" fill="none" xmlns="http://www.w3.org/2000/svg">
<path d="M1.08845 0.60389L1.08854 0.60397L1.25558 0.763021C5.31016 4.62361 11.6806 4.62399 15.7356 0.763891L15.9036 0.604011L15.9036 0.604045L15.9085 0.599244C15.9419 0.566567 15.9812 0.541121 16.024 0.524177C16.0667 0.507236 16.1123 0.499079 16.158 0.500083C16.2037 0.501086 16.2489 0.511237 16.291 0.53006C16.333 0.548886 16.3712 0.57607 16.4032 0.610232C16.4352 0.644403 16.4604 0.684868 16.4771 0.729371C16.4937 0.773882 16.5015 0.821406 16.4998 0.869141C16.4981 0.916877 16.487 0.963682 16.4673 1.00681C16.4476 1.04993 16.4197 1.08841 16.3855 1.12013L16.3854 1.12009L16.3805 1.12484L8.73409 8.40378L8.73388 8.40397C8.66874 8.46605 8.58329 8.5 8.49523 8.5C8.40716 8.5 8.32171 8.46605 8.25657 8.40397L8.25638 8.4038L0.610973 1.12496C0.610939 1.12492 0.610905 1.12489 0.610871 1.12486C0.577374 1.09292 0.550218 1.05444 0.531142 1.0115C0.512043 0.968497 0.501472 0.921976 0.500143 0.874619C0.498814 0.827261 0.506759 0.780178 0.523438 0.736098C0.540116 0.692026 0.565147 0.651951 0.596907 0.61807C0.628661 0.584197 0.666507 0.557185 0.70817 0.538381C0.749824 0.51958 0.794589 0.509296 0.839938 0.508003C0.885285 0.50671 0.93052 0.514426 0.973101 0.5308C1.01569 0.547176 1.05492 0.571946 1.08845 0.60389Z" fill="#545454" stroke="#545454"/>
</svg>
