<svg width="17" height="9" viewBox="0 0 17 9" fill="none" xmlns="http://www.w3.org/2000/svg">
<path d="M1.08947 0.603281L1.08956 0.60336L1.277 0.780829C5.32584 4.6143 11.6649 4.61468 15.7142 0.781699L15.9026 0.603401L15.9026 0.603436L15.9075 0.59865C15.9408 0.566275 15.9801 0.540913 16.0231 0.523979C16.0661 0.507045 16.112 0.498857 16.1581 0.499864C16.2042 0.500871 16.2497 0.511053 16.2919 0.529855C16.3342 0.548656 16.3723 0.575718 16.4042 0.609528C16.4361 0.643346 16.461 0.683232 16.4774 0.726901C16.4938 0.770586 16.5014 0.817137 16.4998 0.86384C16.4981 0.910545 16.4872 0.956423 16.4678 0.9988C16.4483 1.04117 16.4206 1.07916 16.3865 1.1106L16.3865 1.11057L16.3815 1.1153L8.73511 8.35334L8.7349 8.35354C8.66994 8.41511 8.58416 8.44922 8.49523 8.44922C8.40629 8.44922 8.32052 8.41511 8.25555 8.35354L8.25536 8.35336L0.609953 1.11541C0.576525 1.08375 0.549581 1.04573 0.530716 1.0035C0.511849 0.961261 0.501449 0.915668 0.500141 0.869328C0.498833 0.822989 0.506646 0.77687 0.523107 0.733613C0.539568 0.690356 0.564338 0.650851 0.595945 0.617324C0.62755 0.583798 0.665369 0.556909 0.707206 0.538132L0.503159 0.083497L0.707209 0.53813C0.749046 0.519353 0.794117 0.509038 0.839856 0.50774C0.885598 0.506444 0.931169 0.514188 0.973979 0.530558C1.0168 0.546929 1.05605 0.57162 1.08947 0.603281Z" fill="black" stroke="black"/>
</svg>
