<svg width="44" height="36" viewBox="0 0 44 36" fill="none" xmlns="http://www.w3.org/2000/svg">
<path d="M39.5178 0.317845C39.5178 0.317845 43.5138 -1.24043 43.1795 2.54366C43.0695 4.10194 42.0708 9.55643 41.2932 15.4553L38.6292 32.9306C38.6292 32.9306 38.407 35.4907 36.4085 35.9361C34.411 36.3804 31.4138 34.3778 30.8583 33.9324C30.414 33.5982 22.5331 28.589 19.758 26.1411C18.9805 25.4725 18.0918 24.1374 19.8691 22.5791L31.5249 11.448C32.8568 10.1108 34.1888 6.99427 28.6387 10.7794L13.097 21.3531C13.097 21.3531 11.3207 22.467 7.99124 21.4652L0.774814 19.2383C0.774814 19.2383 -1.88918 17.569 2.66223 15.8996C13.7636 10.6683 27.4178 5.32594 39.5168 0.316816" fill="#5C9884"/>
</svg>
