<svg width="61" height="36" viewBox="0 0 61 36" fill="none" xmlns="http://www.w3.org/2000/svg">
<path d="M59.2206 2.43791C59.6441 1.03142 59.2206 0 57.2183 0H50.5851C48.8973 0 48.126 0.892288 47.7026 1.87229C47.7026 1.87229 44.33 10.0965 39.551 15.429C38.0084 16.9807 37.3036 17.4707 36.4628 17.4707C36.0423 17.4707 35.4314 16.9807 35.4314 15.5742V2.43791C35.4314 0.750127 34.9444 0 33.5379 0H23.1148C22.0622 0 21.427 0.780374 21.427 1.52445C21.427 3.12149 23.8165 3.49051 24.0615 7.99126V17.755C24.0615 19.8935 23.6774 20.2836 22.8304 20.2836C20.5831 20.2836 15.1144 12.0292 11.8689 2.58007C11.2368 0.744077 10.5986 0.00302592 8.90472 0.00302592H2.27458C0.378088 0.00302592 0 0.895313 0 1.87532C0 3.63569 2.24735 12.3468 10.4685 23.8679C15.9493 31.7352 23.6653 36 30.6947 36C34.9081 36 35.4283 35.0533 35.4283 33.4199V27.4734C35.4283 25.5799 35.8306 25.1988 37.1645 25.1988C38.1445 25.1988 39.8323 25.6948 43.7674 29.4848C48.2621 33.9795 49.0062 35.997 51.5318 35.997H58.162C60.0555 35.997 61.0022 35.0502 60.4577 33.181C59.8619 31.3208 57.7143 28.6137 54.8651 25.4105C53.3164 23.5836 51.0025 21.6175 50.2978 20.6345C49.3147 19.3672 49.5991 18.8076 50.2978 17.6824C50.3008 17.6854 58.3798 6.3065 59.2206 2.43791Z" fill="#5C9884"/>
</svg>
