<svg width="52" height="36" viewBox="0 0 52 36" fill="none" xmlns="http://www.w3.org/2000/svg">
<path d="M50.99 7.88572C50.99 7.88572 50.48 4.28571 48.95 2.74286C47.08 0.685715 44.87 0.685715 43.85 0.514286C36.71 3.06538e-07 26 0 26 0C26 0 15.29 3.06538e-07 8.15 0.514286C7.13 0.685715 4.92 0.685715 3.05 2.74286C1.52 4.28571 1.01 7.88572 1.01 7.88572C1.01 7.88572 0.5 12 0.5 16.1143V19.8857C0.5 24 1.01 28.2857 1.01 28.2857C1.01 28.2857 1.52 31.8857 3.05 33.4286C4.92 35.4857 7.47 35.4857 8.66 35.6571C12.74 35.8286 26 36 26 36C26 36 36.71 36 43.85 35.4857C44.87 35.3143 47.08 35.3143 48.95 33.2571C50.48 31.7143 50.99 28.1143 50.99 28.1143C50.99 28.1143 51.5 24 51.5 19.8857V16.1143C51.5 12 50.99 7.88572 50.99 7.88572ZM20.73 24.6857V10.2857L34.5 17.4857L20.73 24.6857Z" fill="#5C9884"/>
</svg>
